REM DIRINDEX 1\2,1\3,1\4,1\5
REM DIRNAME folder01,folder02,folder03,folder04,folder05
TITLE ""
FILE "P1Q_t_1240-1249.mp3" MP3
  TRACK 01 AUDIO
    TITLE "3:cjc005_4626"
    INDEX 01 00:00:00
  TRACK 02 AUDIO
    TITLE "0:"
    INDEX 01 00:00:74
  TRACK 03 AUDIO
    TITLE "4:cjc005_4627"
    INDEX 01 00:01:24
  TRACK 04 AUDIO
    TITLE "0:"
    INDEX 01 00:02:51
  TRACK 05 AUDIO
    TITLE "5:cjc005_4628"
    INDEX 01 00:02:73
  TRACK 06 AUDIO
    TITLE "0:"
    INDEX 01 00:06:26
  TRACK 07 AUDIO
    TITLE "3:cjc005_4629"
    INDEX 01 00:07:07
  TRACK 08 AUDIO
    TITLE "0:"
    INDEX 01 00:08:26
  TRACK 09 AUDIO
    TITLE "4:cjc005_4630"
    INDEX 01 00:08:50
  TRACK 10 AUDIO
    TITLE "0:"
    INDEX 01 00:09:63
  TRACK 11 AUDIO
    TITLE "5:cjc005_4631"
    INDEX 01 00:10:06
  TRACK 12 AUDIO
    TITLE "0:"
    INDEX 01 00:14:17
  TRACK 13 AUDIO
    TITLE "3:cjc005_4632"
    INDEX 01 00:14:68
  TRACK 14 AUDIO
    TITLE "0:"
    INDEX 01 00:15:62
  TRACK 15 AUDIO
    TITLE "4:cjc005_4633"
    INDEX 01 00:16:18
  TRACK 16 AUDIO
    TITLE "0:"
    INDEX 01 00:17:23
  TRACK 17 AUDIO
    TITLE "5:cjc005_4634"
    INDEX 01 00:17:53
  TRACK 18 AUDIO
    TITLE "0:"
    INDEX 01 00:21:35
  TRACK 19 AUDIO
    TITLE "3:cjc005_4635"
    INDEX 01 00:22:07
  TRACK 20 AUDIO
    TITLE "0:"
    INDEX 01 00:23:20
  TRACK 21 AUDIO
    TITLE "4:cjc005_4636"
    INDEX 01 00:23:44
  TRACK 22 AUDIO
    TITLE "0:"
    INDEX 01 00:25:11
  TRACK 23 AUDIO
    TITLE "5:cjc005_4637"
    INDEX 01 00:25:35
  TRACK 24 AUDIO
    TITLE "0:"
    INDEX 01 00:30:26
  TRACK 25 AUDIO
    TITLE "3:cjc005_4638"
    INDEX 01 00:31:04
  TRACK 26 AUDIO
    TITLE "0:"
    INDEX 01 00:32:05
  TRACK 27 AUDIO
    TITLE "4:cjc005_4639"
    INDEX 01 00:32:33
  TRACK 28 AUDIO
    TITLE "0:"
    INDEX 01 00:33:62
  TRACK 29 AUDIO
    TITLE "5:cjc005_4640"
    INDEX 01 00:34:16
  TRACK 30 AUDIO
    TITLE "0:"
    INDEX 01 00:38:26
  TRACK 31 AUDIO
    TITLE "3:cjc005_4641"
    INDEX 01 00:39:03
  TRACK 32 AUDIO
    TITLE "0:"
    INDEX 01 00:40:11
  TRACK 33 AUDIO
    TITLE "4:cjc005_4642"
    INDEX 01 00:40:40
  TRACK 34 AUDIO
    TITLE "0:"
    INDEX 01 00:41:53
  TRACK 35 AUDIO
    TITLE "5:cjc005_4643"
    INDEX 01 00:42:04
  TRACK 36 AUDIO
    TITLE "0:"
    INDEX 01 00:45:26
  TRACK 37 AUDIO
    TITLE "3:cjc005_4644"
    INDEX 01 00:46:04
  TRACK 38 AUDIO
    TITLE "0:"
    INDEX 01 00:47:11
  TRACK 39 AUDIO
    TITLE "4:cjc005_4645"
    INDEX 01 00:47:36
  TRACK 40 AUDIO
    TITLE "0:"
    INDEX 01 00:48:44
  TRACK 41 AUDIO
    TITLE "5:cjc005_4646"
    INDEX 01 00:48:69
  TRACK 42 AUDIO
    TITLE "0:"
    INDEX 01 00:52:41
  TRACK 43 AUDIO
    TITLE "3:cjc005_4647"
    INDEX 01 00:53:21
  TRACK 44 AUDIO
    TITLE "0:"
    INDEX 01 00:54:44
  TRACK 45 AUDIO
    TITLE "4:cjc005_4648"
    INDEX 01 00:54:72
  TRACK 46 AUDIO
    TITLE "0:"
    INDEX 01 00:56:24
  TRACK 47 AUDIO
    TITLE "5:cjc005_4649"
    INDEX 01 00:56:49
  TRACK 48 AUDIO
    TITLE "0:"
    INDEX 01 01:00:21
  TRACK 49 AUDIO
    TITLE "3:cjc005_4650"
    INDEX 01 01:00:72
  TRACK 50 AUDIO
    TITLE "0:"
    INDEX 01 01:02:08
  TRACK 51 AUDIO
    TITLE "4:cjc005_4651"
    INDEX 01 01:02:30
  TRACK 52 AUDIO
    TITLE "0:"
    INDEX 01 01:03:39
  TRACK 53 AUDIO
    TITLE "5:cjc005_4652"
    INDEX 01 01:03:61
  TRACK 54 AUDIO
    TITLE "0:"
    INDEX 01 01:07:29
  TRACK 55 AUDIO
    TITLE "3:cjc005_4653"
    INDEX 01 01:08:05
  TRACK 56 AUDIO
    TITLE "0:"
    INDEX 01 01:08:72
  TRACK 57 AUDIO
    TITLE "4:cjc005_4654"
    INDEX 01 01:09:32
  TRACK 58 AUDIO
    TITLE "0:"
    INDEX 01 01:11:03
  TRACK 59 AUDIO
    TITLE "5:cjc005_4655"
    INDEX 01 01:11:23
  TRACK 60 AUDIO
    TITLE "0:"
    INDEX 01 01:15:17
